<svg id="svg" version="1.1" xmlns="http://www.w3.org/2000/svg" xmlns:xlink="http://www.w3.org/1999/xlink" width="400" height="105.96546310832025" viewBox="0, 0, 400,105.96546310832025"><g id="svgg"><path id="path0" d="M68.153 16.069 C 68.115 16.108,67.821 16.176,67.500 16.221 C 67.179 16.266,66.898 16.319,66.875 16.339 C 66.852 16.359,66.777 16.388,66.708 16.403 C 65.736 16.619,63.677 18.370,62.119 20.305 C 60.693 22.076,60.699 22.066,59.580 24.333 C 58.399 26.726,58.143 27.410,57.428 30.083 C 57.145 31.140,56.789 34.988,56.907 35.706 C 56.956 36.005,57.030 36.662,57.071 37.167 C 57.246 39.334,58.060 41.603,59.160 42.992 C 59.439 43.344,59.667 43.673,59.667 43.723 C 59.667 44.137,62.151 46.152,63.503 46.835 C 67.894 49.051,76.904 49.672,78.973 47.901 C 80.320 46.748,80.286 45.030,78.879 43.083 C 78.614 42.717,78.176 41.967,77.907 41.417 C 77.637 40.867,77.372 40.379,77.317 40.333 C 76.195 39.397,75.538 35.071,75.420 27.833 C 75.301 20.588,75.199 20.171,72.949 17.681 C 71.878 16.495,68.771 15.451,68.153 16.069 M28.750 17.113 C 20.480 18.966,22.234 29.041,31.969 35.607 C 32.765 36.144,33.442 36.640,33.473 36.709 C 33.503 36.779,33.597 36.793,33.681 36.741 C 33.765 36.689,33.833 36.739,33.833 36.851 C 33.833 36.964,33.880 37.009,33.937 36.952 C 33.993 36.896,34.537 37.098,35.145 37.401 C 41.353 40.502,47.859 39.434,51.870 34.655 C 52.210 34.249,52.684 33.692,52.923 33.417 C 53.451 32.809,55.844 27.971,56.303 26.583 C 58.221 20.788,56.906 19.008,51.487 20.062 C 46.555 21.021,44.104 20.981,40.854 19.890 C 39.880 19.563,39.008 19.283,38.917 19.268 C 38.825 19.253,38.675 19.197,38.583 19.143 C 38.440 19.060,37.781 18.876,37.376 18.806 C 37.307 18.794,36.617 18.570,35.843 18.308 C 32.822 17.287,30.055 16.821,28.750 17.113 M70.771 18.327 C 71.265 18.610,71.882 19.165,72.231 19.641 C 73.375 21.199,73.372 21.180,73.515 27.333 C 73.724 36.322,74.285 39.129,76.643 42.974 C 78.935 46.712,78.840 46.885,74.448 46.973 C 65.756 47.146,60.796 44.448,59.173 38.664 C 56.656 29.697,65.022 15.029,70.771 18.327 M32.825 19.340 C 33.599 19.526,35.780 20.195,37.670 20.827 C 43.372 22.733,45.757 22.936,51.321 21.989 C 56.201 21.157,56.403 21.724,53.571 28.298 C 49.532 37.676,41.841 39.894,33.207 34.170 C 22.898 27.336,22.629 16.896,32.825 19.340 M247.083 27.433 C 241.121 28.046,237.231 29.932,234.878 33.351 C 230.962 39.043,232.487 45.477,239.000 50.740 C 239.321 51.000,240.033 51.606,240.583 52.089 C 241.133 52.571,241.981 53.313,242.468 53.737 C 242.954 54.160,243.517 54.652,243.718 54.829 C 243.919 55.007,244.796 55.778,245.667 56.543 C 248.602 59.121,249.148 60.597,247.744 62.151 C 245.659 64.459,239.633 64.239,233.000 61.612 C 230.672 60.690,230.756 60.614,231.071 63.351 C 231.212 64.579,231.445 67.044,231.589 68.829 C 231.732 70.613,231.926 72.121,232.019 72.179 C 232.248 72.320,236.750 73.099,239.333 73.444 C 253.305 75.312,262.686 70.169,262.663 60.656 C 262.653 56.558,260.176 52.737,255.041 48.896 C 247.639 43.360,245.937 41.016,247.922 39.087 C 250.068 37.001,255.135 36.933,260.417 38.919 C 262.863 39.839,262.657 39.973,262.408 37.627 C 262.298 36.595,262.160 34.587,262.100 33.167 C 261.933 29.211,261.860 28.709,261.438 28.608 C 258.056 27.803,249.945 27.139,247.083 27.433 M280.000 31.259 C 278.762 31.563,276.105 32.155,274.095 32.574 C 272.085 32.994,270.416 33.362,270.385 33.393 C 270.354 33.423,270.257 34.454,270.168 35.683 C 270.079 36.911,269.960 38.346,269.904 38.871 L 269.802 39.825 267.109 39.871 L 264.417 39.917 264.310 43.000 C 264.252 44.696,264.153 46.777,264.092 47.625 L 263.980 49.167 266.490 49.167 C 268.387 49.167,269.000 49.218,268.999 49.375 C 268.998 49.490,268.774 52.883,268.500 56.917 C 267.842 66.610,267.866 67.285,268.948 69.495 C 270.877 73.438,277.311 74.831,285.634 73.106 C 287.924 72.631,287.685 72.926,288.227 69.917 C 288.895 66.218,288.806 66.420,289.240 67.612 C 290.945 72.288,295.920 74.410,303.440 73.671 C 305.786 73.440,306.333 73.300,306.333 72.930 C 306.333 72.796,306.746 71.350,307.249 69.718 C 307.753 68.086,308.211 66.507,308.268 66.209 L 308.370 65.668 307.643 65.946 C 307.117 66.148,306.355 66.228,304.883 66.237 L 302.849 66.250 302.108 65.524 C 300.026 63.482,301.324 61.570,305.750 60.156 C 308.856 59.164,309.841 58.810,310.485 58.456 L 311.053 58.142 310.944 61.363 C 310.848 64.195,310.574 68.179,310.233 71.708 L 310.124 72.833 316.630 72.833 L 323.136 72.833 323.227 71.292 C 323.277 70.444,323.405 67.575,323.510 64.917 C 323.616 62.258,323.832 58.246,323.991 56.000 C 324.453 49.471,324.431 45.861,323.921 44.425 C 322.037 39.125,313.669 37.366,300.500 39.504 C 299.354 39.690,298.117 39.882,297.750 39.931 C 297.383 39.980,296.477 40.141,295.737 40.288 L 294.390 40.557 294.095 42.737 C 293.933 43.936,293.621 45.850,293.404 46.990 C 292.931 49.462,292.854 49.335,294.455 48.714 C 303.493 45.208,311.587 45.237,310.923 48.773 C 310.683 50.053,309.490 50.687,305.667 51.568 C 304.704 51.789,302.717 52.247,301.250 52.584 C 297.069 53.546,295.677 54.064,293.133 55.605 C 290.812 57.012,288.500 60.608,288.500 62.815 C 288.500 63.427,288.045 63.587,285.808 63.763 C 281.571 64.096,281.111 62.943,281.666 53.392 C 281.755 51.847,281.830 50.265,281.831 49.875 L 281.833 49.167 285.583 49.167 L 289.333 49.167 289.334 47.375 C 289.334 46.390,289.383 44.290,289.443 42.708 L 289.552 39.833 285.845 39.833 L 282.138 39.833 282.231 38.625 C 282.415 36.238,282.526 30.667,282.390 30.686 C 282.313 30.696,281.237 30.954,280.000 31.259 M25.397 34.820 C 24.535 35.345,24.422 35.685,23.761 39.750 C 23.042 44.167,22.873 44.910,22.219 46.500 C 22.163 46.637,22.095 46.857,22.069 46.987 C 21.959 47.532,19.696 51.490,19.219 51.970 C 19.098 52.091,19.000 52.241,19.000 52.304 C 19.000 52.366,18.580 52.867,18.066 53.417 C 17.553 53.967,16.943 54.698,16.711 55.042 C 16.479 55.385,16.233 55.667,16.165 55.667 C 15.833 55.667,14.058 58.630,13.870 59.500 C 12.984 63.605,15.176 67.301,18.917 68.009 C 21.616 68.519,23.797 67.991,28.083 65.790 C 28.851 65.395,31.987 63.284,32.598 62.750 C 32.703 62.658,33.268 62.173,33.853 61.672 C 40.090 56.328,41.686 50.064,38.165 44.750 C 37.922 44.383,37.681 43.967,37.629 43.824 C 37.224 42.704,32.915 38.279,30.740 36.750 C 30.219 36.383,29.702 35.997,29.592 35.892 C 28.585 34.932,26.209 34.325,25.397 34.820 M27.482 36.837 C 33.051 39.805,38.167 46.524,38.167 50.869 C 38.167 58.115,24.329 68.469,18.180 65.823 C 14.671 64.314,14.604 60.325,18.021 56.329 C 23.088 50.404,24.342 47.775,25.413 40.833 C 26.218 35.616,25.996 36.045,27.482 36.837 M347.567 38.659 C 345.484 38.982,343.567 39.954,341.913 41.525 L 340.667 42.709 340.667 41.105 L 340.667 39.500 334.375 39.500 L 328.083 39.500 328.146 43.375 C 328.215 47.658,327.952 55.649,327.577 60.667 C 327.443 62.454,327.258 65.567,327.166 67.583 C 327.074 69.600,326.951 71.606,326.894 72.042 L 326.790 72.833 333.504 72.833 L 340.218 72.833 340.115 70.458 C 339.963 67.003,340.321 58.309,340.696 56.333 C 341.681 51.138,346.127 48.527,351.484 49.998 L 352.051 50.154 351.941 47.535 C 351.881 46.095,351.783 43.554,351.723 41.889 L 351.615 38.861 351.099 38.773 C 349.997 38.585,348.379 38.533,347.567 38.659 M364.242 38.672 C 362.377 38.825,361.213 39.062,359.284 39.683 C 353.880 41.419,351.593 47.452,354.357 52.679 C 355.303 54.467,356.381 55.421,363.479 60.745 C 365.202 62.038,365.267 63.206,363.664 64.083 C 361.701 65.157,356.862 64.637,352.451 62.877 C 350.650 62.159,350.749 62.028,351.075 64.695 C 351.225 65.917,351.417 68.074,351.503 69.488 C 351.690 72.568,351.398 72.234,354.429 72.830 C 368.175 75.533,377.559 72.200,378.118 64.417 C 378.330 61.467,376.167 57.157,373.856 55.921 C 373.615 55.791,373.154 55.451,372.833 55.165 C 372.294 54.683,370.659 53.473,370.021 53.083 C 366.487 50.925,365.642 49.269,367.487 48.121 C 368.051 47.770,368.259 47.750,371.333 47.755 L 374.583 47.759 376.659 48.457 C 377.801 48.840,378.750 49.138,378.769 49.119 C 378.788 49.099,378.683 47.004,378.534 44.463 L 378.264 39.843 377.424 39.675 C 375.652 39.321,371.647 38.829,369.250 38.670 C 366.523 38.490,366.446 38.490,364.242 38.672 M70.333 50.779 C 67.265 51.117,63.432 52.502,61.426 54.000 C 57.678 56.795,56.189 62.234,57.476 68.417 C 59.019 75.826,60.174 77.690,62.715 76.869 C 63.520 76.609,63.729 76.435,67.405 72.948 C 67.870 72.507,68.587 71.911,69.000 71.623 C 69.412 71.335,69.834 71.017,69.936 70.917 C 71.127 69.752,73.808 68.555,77.070 67.733 C 85.878 65.514,89.779 62.229,88.582 58.038 C 87.195 53.180,78.814 49.846,70.333 50.779 M77.269 52.758 C 82.682 53.702,86.872 56.576,86.872 59.344 C 86.872 61.959,83.198 64.423,77.331 65.741 C 72.194 66.896,69.269 68.561,64.651 72.961 C 61.249 76.202,61.306 76.228,59.943 70.750 C 57.057 59.154,60.281 53.906,71.083 52.610 C 72.485 52.442,75.929 52.524,77.269 52.758 M40.576 59.847 C 40.114 59.924,39.026 60.221,38.159 60.507 C 37.293 60.793,36.466 61.051,36.323 61.081 C 35.951 61.159,33.295 62.747,32.701 63.246 C 32.427 63.477,32.152 63.667,32.091 63.667 C 31.936 63.667,30.720 64.638,30.005 65.333 C 29.675 65.654,29.164 66.104,28.868 66.333 C 26.491 68.177,26.632 70.146,29.207 71.067 C 30.250 71.440,34.479 73.568,34.667 73.814 C 34.712 73.874,34.938 74.009,35.167 74.113 C 36.548 74.741,40.048 78.016,41.456 80.000 C 41.879 80.596,42.352 81.233,42.508 81.417 C 42.664 81.600,42.990 82.111,43.232 82.553 C 48.381 91.935,58.000 90.587,58.000 80.482 C 58.000 75.908,56.152 69.094,54.226 66.568 C 54.010 66.284,53.833 65.984,53.833 65.901 C 53.833 65.529,51.425 63.022,50.167 62.084 C 47.631 60.193,43.818 59.303,40.576 59.847 M45.917 62.006 C 51.225 63.628,54.997 69.565,56.012 77.894 C 57.296 88.424,50.636 90.439,44.646 81.333 C 40.709 75.349,36.509 71.969,29.530 69.172 L 28.977 68.950 29.864 68.038 C 34.923 62.833,41.067 60.524,45.917 62.006 " stroke="none" fill="#a1a8a1" fill-rule="evenodd"></path><path id="path1" d="M68.000 18.201 C 68.000 18.293,67.887 18.326,67.750 18.273 C 67.612 18.220,67.500 18.262,67.500 18.366 C 67.500 18.470,67.454 18.509,67.397 18.452 C 67.340 18.396,67.184 18.459,67.050 18.593 C 66.916 18.727,66.726 18.787,66.627 18.726 C 66.521 18.660,66.497 18.694,66.567 18.808 C 66.633 18.913,66.607 19.009,66.510 19.021 C 66.413 19.032,66.265 19.051,66.181 19.063 C 66.097 19.074,65.965 19.152,65.889 19.235 C 65.807 19.325,65.852 19.332,66.000 19.252 C 66.190 19.150,66.206 19.166,66.063 19.320 C 65.961 19.432,65.754 19.541,65.603 19.563 C 65.301 19.608,64.000 20.813,64.000 21.049 C 64.000 21.130,63.865 21.321,63.700 21.473 C 63.536 21.625,63.483 21.712,63.583 21.667 C 63.684 21.621,63.575 21.760,63.341 21.977 C 63.108 22.193,63.029 22.319,63.167 22.256 C 63.304 22.194,63.192 22.344,62.917 22.590 C 62.642 22.835,62.518 22.982,62.642 22.914 C 62.795 22.832,62.775 22.933,62.581 23.229 C 62.424 23.470,62.224 23.667,62.138 23.667 C 62.051 23.667,62.027 23.742,62.083 23.833 C 62.140 23.925,62.102 24.000,62.000 24.000 C 61.898 24.000,61.856 24.069,61.908 24.152 C 61.960 24.236,61.936 24.330,61.856 24.361 C 61.601 24.458,60.816 26.171,60.936 26.365 C 61.004 26.474,60.976 26.505,60.871 26.440 C 60.653 26.305,60.430 26.918,60.598 27.191 C 60.678 27.320,60.645 27.340,60.497 27.248 C 60.337 27.149,60.306 27.188,60.383 27.389 C 60.442 27.542,60.419 27.667,60.333 27.667 C 60.247 27.667,60.225 27.791,60.284 27.944 C 60.359 28.141,60.328 28.183,60.177 28.090 C 60.018 27.991,59.994 28.052,60.083 28.333 C 60.170 28.606,60.147 28.674,60.000 28.583 C 59.855 28.494,59.829 28.558,59.910 28.812 C 59.975 29.018,59.950 29.167,59.850 29.167 C 59.755 29.167,59.720 29.279,59.773 29.417 C 59.826 29.554,59.793 29.667,59.700 29.667 C 59.607 29.667,59.570 29.817,59.618 30.000 C 59.666 30.183,59.629 30.333,59.535 30.333 C 59.441 30.333,59.404 30.483,59.452 30.667 C 59.504 30.866,59.457 31.000,59.335 31.000 C 59.202 31.000,59.166 31.141,59.233 31.406 C 59.289 31.630,59.267 31.855,59.184 31.906 C 58.869 32.100,58.824 37.504,59.134 37.877 C 59.242 38.007,59.283 38.162,59.225 38.220 C 59.167 38.278,59.211 38.436,59.324 38.572 C 59.437 38.708,59.480 38.897,59.421 38.993 C 59.362 39.088,59.401 39.167,59.508 39.167 C 59.615 39.167,59.659 39.279,59.606 39.417 C 59.554 39.554,59.588 39.667,59.682 39.667 C 59.776 39.667,59.807 39.742,59.750 39.833 C 59.693 39.925,59.734 40.000,59.841 40.000 C 59.948 40.000,59.991 40.116,59.936 40.259 C 59.872 40.428,59.904 40.476,60.030 40.398 C 60.160 40.318,60.188 40.372,60.114 40.565 C 60.053 40.722,60.070 40.810,60.151 40.760 C 60.232 40.710,60.343 40.785,60.397 40.926 C 60.459 41.087,60.428 41.142,60.314 41.071 C 60.214 41.010,60.261 41.156,60.419 41.396 C 60.576 41.637,60.770 41.833,60.850 41.833 C 60.930 41.833,61.100 42.077,61.227 42.375 C 61.355 42.673,61.711 43.142,62.019 43.417 C 62.333 43.697,62.470 43.767,62.331 43.575 C 62.195 43.387,62.335 43.499,62.642 43.825 C 62.949 44.150,63.148 44.304,63.086 44.167 C 63.023 44.029,63.134 44.104,63.333 44.333 C 63.533 44.563,63.646 44.637,63.585 44.500 C 63.499 44.303,63.522 44.307,63.696 44.517 C 63.918 44.784,64.018 44.833,64.343 44.833 C 64.440 44.833,64.474 44.907,64.418 44.998 C 64.361 45.089,64.422 45.122,64.553 45.072 C 64.684 45.022,64.904 45.094,65.042 45.232 C 65.180 45.371,65.340 45.438,65.397 45.381 C 65.454 45.324,65.500 45.378,65.500 45.500 C 65.500 45.622,65.549 45.673,65.610 45.613 C 65.670 45.552,65.803 45.572,65.905 45.657 C 66.239 45.934,68.881 46.540,69.851 46.562 C 70.372 46.574,70.771 46.628,70.738 46.683 C 70.654 46.822,77.187 46.727,77.541 46.583 C 77.701 46.518,77.790 46.398,77.739 46.316 C 77.688 46.234,77.710 46.167,77.788 46.167 C 77.866 46.167,77.940 46.017,77.954 45.833 C 77.968 45.650,77.911 45.500,77.828 45.500 C 77.745 45.500,77.725 45.375,77.784 45.223 C 77.850 45.049,77.824 44.986,77.712 45.055 C 77.615 45.115,77.490 45.049,77.436 44.907 C 77.371 44.738,77.408 44.685,77.544 44.754 C 77.657 44.811,77.604 44.740,77.426 44.596 C 77.249 44.451,77.156 44.333,77.220 44.333 C 77.367 44.333,76.517 42.961,76.267 42.794 C 76.166 42.727,76.140 42.671,76.208 42.669 C 76.277 42.668,76.181 42.514,75.994 42.327 C 75.807 42.141,75.699 41.916,75.754 41.827 C 75.808 41.739,75.761 41.667,75.649 41.667 C 75.536 41.667,75.488 41.623,75.542 41.569 C 75.595 41.516,75.489 41.323,75.307 41.140 C 75.124 40.957,75.015 40.701,75.065 40.570 C 75.115 40.440,75.086 40.333,75.000 40.333 C 74.914 40.333,74.892 40.209,74.950 40.056 C 75.026 39.859,74.995 39.817,74.844 39.910 C 74.684 40.009,74.661 39.948,74.750 39.667 C 74.825 39.429,74.807 39.330,74.700 39.396 C 74.596 39.460,74.567 39.361,74.625 39.141 C 74.695 38.873,74.663 38.816,74.501 38.916 C 74.365 39.000,74.322 38.986,74.388 38.880 C 74.446 38.785,74.350 38.042,74.173 37.229 C 73.511 34.179,73.300 31.612,73.271 26.208 C 73.259 24.169,73.184 22.500,73.103 22.500 C 73.022 22.500,72.999 22.236,73.052 21.913 C 73.118 21.505,73.090 21.361,72.962 21.440 C 72.842 21.514,72.814 21.457,72.883 21.277 C 72.942 21.125,72.912 21.000,72.818 21.000 C 72.724 21.000,72.693 20.925,72.750 20.833 C 72.807 20.742,72.769 20.667,72.667 20.667 C 72.564 20.667,72.522 20.600,72.573 20.517 C 72.623 20.435,72.548 20.323,72.405 20.269 C 72.262 20.214,72.192 20.093,72.249 20.001 C 72.306 19.909,72.274 19.833,72.177 19.833 C 72.079 19.833,72.000 19.734,72.000 19.612 C 72.000 19.491,71.794 19.210,71.542 18.987 L 71.083 18.583 71.417 19.009 C 71.620 19.268,71.544 19.226,71.220 18.899 C 70.929 18.605,70.648 18.408,70.595 18.460 C 70.543 18.513,70.500 18.464,70.500 18.351 C 70.500 18.239,70.430 18.190,70.345 18.243 C 70.260 18.296,70.149 18.273,70.099 18.192 C 69.972 17.986,68.000 17.994,68.000 18.201 M29.599 19.192 C 29.685 19.332,29.525 19.353,29.013 19.271 C 28.508 19.191,28.342 19.212,28.425 19.347 C 28.506 19.478,28.426 19.499,28.167 19.417 C 27.891 19.329,27.825 19.352,27.919 19.504 C 28.002 19.638,27.965 19.683,27.815 19.632 C 27.688 19.589,27.484 19.673,27.363 19.819 C 27.241 19.964,27.194 19.982,27.258 19.858 C 27.348 19.683,27.305 19.671,27.062 19.801 C 26.366 20.176,25.559 21.358,25.768 21.696 C 25.844 21.819,25.810 21.838,25.668 21.751 C 25.505 21.650,25.472 21.726,25.536 22.059 C 25.582 22.301,25.556 22.500,25.477 22.500 C 25.398 22.500,25.333 22.804,25.333 23.177 C 25.333 23.578,25.400 23.812,25.497 23.752 C 25.600 23.688,25.622 23.851,25.555 24.184 C 25.483 24.542,25.506 24.682,25.625 24.609 C 25.734 24.542,25.772 24.617,25.723 24.802 C 25.623 25.184,26.350 26.850,26.823 27.323 C 27.019 27.519,27.134 27.751,27.080 27.839 C 27.025 27.928,27.055 28.000,27.145 28.000 C 27.236 28.000,27.480 28.239,27.688 28.530 C 27.901 28.829,27.960 29.001,27.824 28.925 C 27.692 28.850,27.846 29.033,28.167 29.330 C 28.488 29.627,28.600 29.776,28.417 29.660 C 28.233 29.545,28.538 29.893,29.094 30.434 C 29.650 30.974,29.875 31.229,29.594 31.000 L 29.083 30.583 29.565 31.117 C 29.830 31.411,30.111 31.636,30.190 31.617 C 30.268 31.599,30.601 31.883,30.928 32.250 C 31.256 32.617,31.473 32.804,31.410 32.667 C 31.348 32.529,31.498 32.642,31.744 32.917 C 31.990 33.192,32.142 33.304,32.083 33.167 C 32.024 33.029,32.177 33.142,32.423 33.417 C 32.669 33.692,32.816 33.817,32.751 33.696 C 32.653 33.515,32.693 33.513,32.972 33.688 C 33.159 33.805,33.274 33.962,33.227 34.037 C 33.180 34.113,33.204 34.164,33.279 34.151 C 33.634 34.089,33.842 34.184,33.734 34.359 C 33.662 34.476,33.688 34.506,33.802 34.436 C 33.904 34.373,34.141 34.474,34.327 34.661 C 34.514 34.847,34.668 34.944,34.669 34.875 C 34.671 34.806,34.727 34.834,34.794 34.936 C 34.997 35.244,36.331 35.854,36.531 35.731 C 36.654 35.655,36.671 35.691,36.582 35.836 C 36.483 35.996,36.521 36.027,36.723 35.950 C 36.875 35.892,37.000 35.924,37.000 36.023 C 37.000 36.122,37.112 36.159,37.250 36.106 C 37.388 36.054,37.500 36.091,37.500 36.190 C 37.500 36.288,37.616 36.324,37.759 36.270 C 37.921 36.208,37.975 36.239,37.904 36.353 C 37.829 36.475,37.909 36.498,38.146 36.423 C 38.341 36.361,38.500 36.384,38.500 36.473 C 38.500 36.562,38.662 36.593,38.859 36.541 C 39.112 36.475,39.182 36.507,39.095 36.647 C 39.005 36.793,39.095 36.816,39.428 36.732 C 39.762 36.648,39.850 36.672,39.758 36.820 C 39.665 36.970,39.786 36.993,40.234 36.909 C 40.584 36.843,40.833 36.863,40.833 36.956 C 40.833 37.046,41.455 37.117,42.250 37.117 C 43.029 37.117,43.667 37.047,43.667 36.962 C 43.667 36.875,43.896 36.857,44.188 36.921 C 44.583 37.008,44.677 36.985,44.579 36.827 C 44.482 36.670,44.564 36.646,44.906 36.732 C 45.228 36.813,45.327 36.791,45.243 36.655 C 45.160 36.522,45.238 36.500,45.500 36.583 C 45.781 36.673,45.842 36.649,45.744 36.490 C 45.650 36.338,45.692 36.307,45.889 36.383 C 46.042 36.442,46.167 36.419,46.167 36.333 C 46.167 36.247,46.291 36.225,46.444 36.284 C 46.645 36.361,46.684 36.330,46.585 36.169 C 46.494 36.023,46.513 35.988,46.641 36.067 C 46.842 36.192,47.833 35.690,47.833 35.464 C 47.833 35.392,47.903 35.352,47.988 35.375 C 48.073 35.398,48.266 35.267,48.417 35.083 C 48.568 34.900,48.636 34.862,48.568 35.000 C 48.500 35.137,48.738 34.942,49.097 34.566 C 49.456 34.190,50.050 33.595,50.417 33.243 C 50.783 32.891,50.933 32.701,50.750 32.820 C 50.567 32.939,50.679 32.794,51.000 32.496 C 51.321 32.199,51.471 32.010,51.333 32.076 C 51.196 32.142,51.271 32.033,51.500 31.833 C 51.729 31.634,51.804 31.521,51.667 31.581 C 51.501 31.654,51.515 31.611,51.706 31.454 C 51.865 31.324,51.946 31.168,51.886 31.109 C 51.827 31.049,51.863 31.000,51.968 31.000 C 52.228 31.000,52.708 30.035,52.564 29.803 C 52.488 29.680,52.524 29.662,52.669 29.752 C 52.831 29.851,52.861 29.811,52.780 29.602 C 52.720 29.445,52.734 29.355,52.811 29.403 C 52.987 29.512,53.371 28.696,53.242 28.488 C 53.190 28.403,53.231 28.333,53.333 28.333 C 53.436 28.333,53.478 28.265,53.426 28.182 C 53.281 27.948,53.513 27.488,53.712 27.612 C 53.824 27.680,53.850 27.618,53.784 27.444 C 53.725 27.291,53.747 27.167,53.833 27.167 C 53.919 27.167,53.942 27.042,53.883 26.889 C 53.812 26.704,53.841 26.652,53.970 26.731 C 54.096 26.809,54.128 26.761,54.064 26.592 C 54.009 26.449,54.052 26.333,54.159 26.333 C 54.266 26.333,54.310 26.264,54.257 26.178 C 54.204 26.093,54.239 25.975,54.333 25.917 C 54.428 25.858,54.462 25.740,54.410 25.655 C 54.357 25.570,54.391 25.500,54.485 25.500 C 54.579 25.500,54.613 25.387,54.560 25.250 C 54.508 25.113,54.538 25.000,54.629 25.000 C 55.044 25.000,55.362 22.141,54.974 21.901 C 54.856 21.827,54.827 21.855,54.900 21.972 C 54.976 22.095,54.926 22.128,54.760 22.064 C 54.618 22.010,54.543 21.898,54.594 21.816 C 54.645 21.734,54.377 21.667,54.000 21.667 C 53.557 21.667,53.353 21.730,53.423 21.844 C 53.498 21.965,53.333 21.984,52.909 21.904 C 52.465 21.821,52.319 21.841,52.401 21.974 C 52.482 22.106,52.357 22.130,51.982 22.055 C 51.603 21.979,51.482 22.003,51.566 22.138 C 51.649 22.273,51.528 22.297,51.149 22.221 C 50.844 22.160,50.655 22.179,50.708 22.266 C 50.831 22.467,49.153 22.576,46.000 22.572 C 42.966 22.569,41.663 22.474,41.791 22.267 C 41.843 22.183,41.684 22.168,41.428 22.232 C 41.105 22.313,41.007 22.291,41.090 22.155 C 41.173 22.022,41.096 22.000,40.833 22.083 C 40.554 22.172,40.491 22.149,40.589 21.992 C 40.683 21.838,40.621 21.806,40.359 21.875 C 40.162 21.927,40.000 21.903,40.000 21.823 C 40.000 21.743,39.887 21.720,39.750 21.773 C 39.612 21.826,39.500 21.788,39.500 21.690 C 39.500 21.591,39.387 21.554,39.250 21.606 C 39.112 21.659,39.000 21.622,39.000 21.523 C 39.000 21.424,38.887 21.387,38.750 21.440 C 38.612 21.492,38.500 21.455,38.500 21.356 C 38.500 21.258,38.387 21.220,38.250 21.273 C 38.112 21.326,38.000 21.288,38.000 21.190 C 38.000 21.091,37.887 21.054,37.750 21.106 C 37.608 21.161,37.500 21.110,37.500 20.990 C 37.500 20.873,37.451 20.827,37.390 20.887 C 37.330 20.948,37.180 20.914,37.057 20.811 C 36.934 20.709,36.833 20.682,36.833 20.750 C 36.833 20.818,36.740 20.798,36.625 20.705 C 36.292 20.435,33.631 19.645,33.379 19.742 C 33.238 19.796,33.194 19.757,33.266 19.641 C 33.346 19.511,33.245 19.478,32.946 19.535 C 32.677 19.587,32.550 19.554,32.614 19.450 C 32.681 19.342,32.527 19.320,32.184 19.388 C 31.824 19.460,31.686 19.437,31.760 19.316 C 31.837 19.193,31.570 19.172,30.894 19.247 C 30.188 19.326,29.986 19.308,30.167 19.181 C 30.367 19.040,30.324 19.005,29.948 19.003 C 29.637 19.001,29.520 19.064,29.599 19.192 M111.250 28.166 C 109.050 28.233,104.243 28.298,100.568 28.311 L 93.887 28.333 93.775 34.292 C 93.534 47.124,92.806 63.759,92.255 69.000 C 92.212 69.412,92.129 70.444,92.072 71.292 L 91.968 72.833 103.859 72.830 C 121.558 72.825,123.479 72.651,127.201 70.715 C 133.128 67.631,134.790 58.000,130.253 53.025 C 128.892 51.532,127.541 50.771,125.171 50.160 L 124.426 49.967 125.412 49.626 C 131.410 47.551,134.273 39.886,131.343 33.750 C 129.015 28.877,124.956 27.749,111.250 28.166 M186.083 31.268 C 184.892 31.573,183.617 31.863,183.250 31.913 C 180.561 32.280,176.157 33.399,176.089 33.733 C 176.049 33.925,175.969 35.275,175.911 36.731 C 175.853 38.187,175.766 39.481,175.718 39.606 C 175.612 39.882,172.500 39.941,172.500 39.667 C 172.500 39.558,170.262 39.500,166.118 39.500 L 159.736 39.500 158.451 42.721 C 157.745 44.493,157.167 45.991,157.167 46.050 C 157.167 46.108,156.763 47.190,156.270 48.453 C 155.170 51.272,152.613 58.751,152.108 60.630 L 151.736 62.011 151.358 59.547 C 151.149 58.192,150.637 55.771,150.220 54.167 C 149.802 52.563,149.134 49.990,148.736 48.450 C 148.337 46.911,147.715 44.586,147.353 43.284 C 146.990 41.982,146.610 40.598,146.507 40.208 L 146.320 39.500 139.744 39.500 C 134.593 39.500,133.167 39.545,133.166 39.708 C 133.166 39.823,133.682 41.379,134.313 43.167 C 134.944 44.954,135.626 46.942,135.830 47.583 C 136.033 48.225,136.628 49.987,137.152 51.500 C 137.676 53.012,138.769 56.275,139.581 58.750 C 140.393 61.225,141.488 64.525,142.014 66.083 C 144.111 72.291,144.421 73.442,144.177 74.131 C 142.343 79.321,138.484 80.744,132.614 78.396 C 130.883 77.703,130.952 77.678,131.180 78.913 C 131.279 79.447,131.612 81.608,131.920 83.715 C 132.563 88.107,132.363 87.706,134.083 88.052 C 143.523 89.950,150.806 87.707,154.012 81.917 C 154.639 80.783,155.271 79.531,155.611 78.748 C 156.176 77.447,157.925 73.345,159.163 70.417 C 159.783 68.950,160.533 67.225,160.829 66.583 C 161.125 65.942,161.690 64.629,162.085 63.667 C 162.480 62.704,163.567 60.154,164.501 58.000 C 165.434 55.846,166.596 53.146,167.082 52.000 C 167.569 50.854,168.317 49.167,168.744 48.250 C 169.495 46.641,169.847 45.860,170.061 45.333 C 170.117 45.196,170.128 45.458,170.085 45.917 C 170.042 46.375,169.987 47.275,169.962 47.917 L 169.917 49.083 172.375 49.129 L 174.833 49.176 174.833 49.879 C 174.833 50.267,174.643 53.321,174.410 56.667 C 173.654 67.540,173.809 68.836,176.146 71.172 C 177.919 72.946,180.199 73.662,184.333 73.746 C 187.556 73.811,192.688 73.161,193.413 72.595 C 193.631 72.426,194.357 68.868,194.590 66.833 C 194.647 66.329,194.833 65.318,195.002 64.585 C 195.375 62.968,195.461 63.052,193.852 63.456 C 189.675 64.505,187.669 63.612,187.386 60.580 C 187.287 59.519,187.600 50.330,187.763 49.542 L 187.840 49.167 191.503 49.167 L 195.167 49.167 195.179 47.792 C 195.185 47.035,195.249 44.992,195.320 43.250 C 195.411 41.008,195.395 40.048,195.266 39.961 C 195.165 39.894,193.527 39.837,191.625 39.836 L 188.167 39.833 188.178 37.875 C 188.184 36.798,188.250 34.792,188.323 33.417 C 188.396 32.042,188.410 30.871,188.353 30.815 C 188.296 30.759,187.275 30.963,186.083 31.268 M26.398 36.634 C 26.174 36.781,25.755 39.223,25.893 39.582 C 25.950 39.730,25.931 39.810,25.850 39.761 C 25.660 39.643,25.449 41.340,25.604 41.743 C 25.693 41.976,25.668 42.020,25.502 41.918 C 25.328 41.810,25.302 41.911,25.381 42.394 C 25.449 42.812,25.423 42.972,25.300 42.896 C 25.177 42.820,25.157 42.979,25.238 43.409 C 25.325 43.877,25.304 44.002,25.153 43.908 C 25.006 43.817,24.981 43.902,25.062 44.225 C 25.133 44.509,25.105 44.667,24.984 44.667 C 24.877 44.667,24.832 44.811,24.882 45.000 C 24.930 45.183,24.903 45.333,24.823 45.333 C 24.743 45.333,24.720 45.446,24.773 45.583 C 24.826 45.721,24.788 45.833,24.690 45.833 C 24.591 45.833,24.554 45.946,24.606 46.083 C 24.659 46.221,24.622 46.333,24.523 46.333 C 24.424 46.333,24.387 46.446,24.440 46.583 C 24.492 46.721,24.448 46.833,24.341 46.833 C 24.234 46.833,24.193 46.908,24.250 47.000 C 24.307 47.092,24.261 47.167,24.149 47.167 C 24.036 47.167,23.992 47.214,24.050 47.272 C 24.108 47.330,24.067 47.536,23.959 47.730 C 23.851 47.924,23.778 48.140,23.798 48.208 C 23.817 48.277,23.773 48.333,23.700 48.333 C 23.558 48.333,23.076 49.500,23.133 49.708 C 23.151 49.777,23.087 49.833,22.990 49.833 C 22.893 49.833,22.860 49.908,22.917 50.000 C 22.973 50.092,22.943 50.167,22.849 50.167 C 22.755 50.167,22.593 50.326,22.489 50.520 C 22.337 50.805,22.344 50.851,22.525 50.756 C 22.649 50.691,22.563 50.801,22.333 51.000 C 22.104 51.199,22.029 51.313,22.167 51.252 C 22.332 51.179,22.319 51.222,22.128 51.379 C 21.969 51.510,21.886 51.663,21.943 51.721 C 22.001 51.778,21.925 51.873,21.775 51.930 C 21.625 51.988,21.541 52.098,21.589 52.176 C 21.637 52.253,21.524 52.398,21.338 52.498 C 21.152 52.597,21.000 52.754,21.000 52.846 C 21.000 52.938,20.853 53.172,20.672 53.366 C 20.492 53.559,20.391 53.792,20.448 53.884 C 20.507 53.979,20.468 54.000,20.358 53.932 C 20.246 53.862,20.118 53.939,20.055 54.114 C 19.994 54.281,19.747 54.604,19.505 54.833 C 19.254 55.071,19.212 55.151,19.407 55.019 C 19.596 54.892,19.375 55.150,18.917 55.591 C 18.458 56.033,18.196 56.337,18.333 56.268 C 18.471 56.198,18.302 56.379,17.958 56.670 C 17.615 56.961,17.373 57.263,17.421 57.341 C 17.470 57.419,17.355 57.566,17.167 57.667 C 16.978 57.768,16.865 57.917,16.916 57.998 C 16.966 58.080,16.886 58.214,16.739 58.296 C 16.591 58.379,16.477 58.496,16.485 58.557 C 16.530 58.891,16.482 59.008,16.335 58.918 C 16.237 58.857,16.215 58.932,16.280 59.102 C 16.354 59.295,16.327 59.349,16.197 59.269 C 16.071 59.191,16.038 59.239,16.103 59.408 C 16.158 59.551,16.115 59.667,16.008 59.667 C 15.901 59.667,15.857 59.736,15.910 59.822 C 15.962 59.907,15.936 60.020,15.851 60.072 C 15.648 60.198,15.673 62.667,15.877 62.667 C 15.964 62.667,15.992 62.779,15.940 62.917 C 15.887 63.054,15.924 63.167,16.023 63.167 C 16.122 63.167,16.159 63.279,16.106 63.417 C 16.054 63.554,16.074 63.667,16.153 63.667 C 16.231 63.667,16.424 63.863,16.581 64.104 C 16.773 64.396,16.793 64.498,16.642 64.411 C 16.518 64.340,16.637 64.518,16.906 64.808 C 17.408 65.346,17.655 65.503,17.395 65.117 C 17.315 64.998,17.372 65.033,17.521 65.193 C 17.670 65.354,17.839 65.439,17.896 65.382 C 17.953 65.325,18.000 65.370,18.000 65.482 C 18.000 65.594,18.075 65.640,18.167 65.583 C 18.258 65.527,18.333 65.557,18.333 65.652 C 18.333 65.746,18.458 65.775,18.611 65.716 C 18.801 65.643,18.849 65.673,18.763 65.812 C 18.672 65.960,18.760 65.983,19.094 65.899 C 19.351 65.835,19.509 65.850,19.457 65.934 C 19.406 66.017,19.942 66.083,20.667 66.083 C 21.391 66.083,21.927 66.017,21.876 65.934 C 21.824 65.850,21.978 65.833,22.225 65.896 C 22.500 65.964,22.667 65.938,22.667 65.825 C 22.667 65.716,22.808 65.689,23.021 65.757 C 23.275 65.837,23.340 65.812,23.250 65.667 C 23.159 65.520,23.228 65.497,23.500 65.583 C 23.754 65.664,23.838 65.643,23.762 65.520 C 23.691 65.405,23.746 65.374,23.908 65.436 C 24.051 65.491,24.167 65.448,24.167 65.341 C 24.167 65.234,24.235 65.189,24.318 65.241 C 24.532 65.373,25.017 65.162,24.907 64.984 C 24.857 64.903,24.916 64.875,25.037 64.922 C 25.159 64.969,25.683 64.751,26.203 64.438 C 26.722 64.125,27.189 63.911,27.240 63.962 C 27.291 64.014,27.333 63.964,27.333 63.851 C 27.333 63.739,27.408 63.693,27.500 63.750 C 27.592 63.807,27.667 63.782,27.667 63.696 C 27.667 63.609,27.863 63.409,28.104 63.252 C 28.402 63.057,28.503 63.037,28.423 63.191 C 28.358 63.315,28.467 63.229,28.667 63.000 C 28.866 62.771,28.978 62.696,28.917 62.833 C 28.855 62.971,28.967 62.896,29.167 62.667 C 29.366 62.438,29.478 62.362,29.417 62.500 C 29.355 62.637,29.467 62.563,29.667 62.333 C 29.866 62.104,29.972 62.029,29.902 62.167 C 29.766 62.436,30.320 62.022,30.917 61.410 C 31.100 61.222,31.181 61.184,31.098 61.325 C 31.014 61.467,31.239 61.278,31.598 60.906 C 31.956 60.533,32.175 60.348,32.083 60.495 C 31.992 60.642,32.242 60.403,32.640 59.964 C 33.038 59.525,33.444 59.215,33.541 59.275 C 33.640 59.337,33.670 59.306,33.608 59.207 C 33.548 59.109,33.894 58.666,34.379 58.223 C 34.863 57.779,35.140 57.492,34.994 57.583 C 34.848 57.675,34.995 57.495,35.322 57.183 C 35.649 56.871,35.804 56.673,35.667 56.743 C 35.529 56.813,35.615 56.693,35.858 56.477 C 36.326 56.059,37.374 54.352,37.033 54.563 C 36.876 54.660,36.874 54.593,37.023 54.266 C 37.129 54.034,37.292 53.891,37.386 53.949 C 37.490 54.013,37.515 53.946,37.450 53.777 C 37.392 53.625,37.414 53.500,37.500 53.500 C 37.586 53.500,37.613 53.387,37.560 53.250 C 37.508 53.112,37.552 53.000,37.660 53.000 C 37.780 53.000,37.815 52.871,37.750 52.667 C 37.692 52.483,37.720 52.333,37.812 52.333 C 37.910 52.333,37.940 52.092,37.884 51.750 C 37.823 51.371,37.856 51.167,37.978 51.167 C 38.082 51.167,38.167 51.017,38.167 50.833 C 38.167 50.650,38.082 50.500,37.979 50.500 C 37.852 50.500,37.826 50.278,37.899 49.821 C 37.979 49.320,37.956 49.174,37.811 49.264 C 37.674 49.348,37.643 49.276,37.708 49.026 C 37.760 48.828,37.726 48.667,37.633 48.667 C 37.540 48.667,37.508 48.554,37.560 48.417 C 37.613 48.279,37.576 48.167,37.477 48.167 C 37.378 48.167,37.341 48.054,37.394 47.917 C 37.446 47.779,37.419 47.667,37.333 47.667 C 37.247 47.667,37.225 47.542,37.284 47.389 C 37.348 47.221,37.323 47.153,37.219 47.217 C 37.126 47.275,36.962 47.133,36.856 46.901 C 36.747 46.660,36.735 46.523,36.830 46.581 C 36.926 46.641,36.954 46.575,36.897 46.426 C 36.843 46.285,36.720 46.217,36.623 46.277 C 36.526 46.337,36.497 46.306,36.558 46.207 C 36.675 46.018,36.170 45.003,35.958 45.001 C 35.890 45.000,35.833 44.921,35.833 44.825 C 35.833 44.729,35.627 44.457,35.375 44.221 C 35.123 43.985,35.067 43.888,35.250 44.007 C 35.433 44.125,35.278 43.928,34.906 43.569 C 34.533 43.210,34.383 43.025,34.572 43.157 C 34.762 43.289,34.274 42.764,33.488 41.990 C 32.703 41.216,32.478 40.958,32.988 41.417 L 33.917 42.250 33.013 41.299 C 32.516 40.777,32.066 40.375,32.013 40.408 C 31.960 40.441,31.617 40.201,31.250 39.876 C 30.883 39.551,30.715 39.380,30.875 39.496 C 31.623 40.038,31.057 39.457,30.225 38.829 C 29.708 38.438,29.341 38.223,29.410 38.351 C 29.480 38.479,29.360 38.392,29.143 38.159 C 28.927 37.925,28.825 37.847,28.917 37.986 C 29.011 38.128,28.848 38.072,28.542 37.857 C 28.244 37.648,28.000 37.403,28.000 37.312 C 28.000 37.221,27.928 37.192,27.839 37.246 C 27.751 37.301,27.532 37.199,27.353 37.020 C 27.174 36.841,26.980 36.742,26.921 36.801 C 26.863 36.859,26.761 36.819,26.695 36.712 C 26.629 36.605,26.495 36.570,26.398 36.634 M114.322 37.171 C 117.904 37.549,119.509 39.497,118.612 42.378 C 117.822 44.914,116.264 45.497,110.270 45.499 L 106.624 45.500 106.723 44.542 C 106.778 44.015,106.873 42.102,106.935 40.292 L 107.047 37.000 109.899 37.003 C 111.467 37.004,113.458 37.080,114.322 37.171 M211.778 38.670 C 204.498 39.349,200.072 42.081,197.344 47.583 C 192.679 56.993,195.069 67.665,202.705 71.515 C 207.760 74.064,217.426 74.537,225.863 72.647 C 226.720 72.455,226.675 72.551,226.915 70.417 C 226.967 69.958,227.277 68.096,227.603 66.279 C 227.929 64.461,228.169 62.946,228.135 62.913 C 228.101 62.879,227.438 63.036,226.662 63.263 C 215.456 66.534,208.385 64.900,208.034 58.958 L 207.957 57.667 215.104 57.643 C 219.034 57.630,224.162 57.574,226.500 57.518 L 230.750 57.417 230.947 56.083 C 232.638 44.670,224.708 37.466,211.778 38.670 M215.855 46.755 C 217.571 47.340,218.587 48.842,218.776 51.076 L 218.882 52.333 213.608 52.333 C 209.498 52.333,208.334 52.287,208.335 52.125 C 208.370 48.499,212.441 45.592,215.855 46.755 M71.167 52.897 C 71.167 52.978,70.829 52.999,70.417 52.943 C 69.935 52.876,69.667 52.903,69.667 53.016 C 69.667 53.128,69.474 53.151,69.146 53.079 C 68.751 52.992,68.656 53.015,68.754 53.173 C 68.851 53.329,68.772 53.354,68.442 53.271 C 68.167 53.202,68.000 53.229,68.000 53.341 C 68.000 53.447,67.860 53.478,67.667 53.417 C 67.467 53.353,67.333 53.387,67.333 53.500 C 67.333 53.617,67.198 53.646,66.979 53.577 C 66.725 53.496,66.660 53.521,66.750 53.667 C 66.841 53.814,66.772 53.836,66.500 53.750 C 66.262 53.675,66.163 53.693,66.229 53.800 C 66.293 53.904,66.195 53.933,65.974 53.875 C 65.747 53.816,65.654 53.845,65.722 53.955 C 65.781 54.051,65.737 54.126,65.623 54.122 C 65.053 54.101,64.822 54.180,64.933 54.359 C 65.005 54.477,64.978 54.506,64.864 54.436 C 64.631 54.292,63.667 54.772,63.667 55.032 C 63.667 55.137,63.618 55.173,63.558 55.114 C 63.498 55.054,63.343 55.135,63.212 55.294 C 63.062 55.478,63.018 55.492,63.093 55.333 C 63.158 55.196,62.967 55.346,62.670 55.667 C 62.373 55.987,62.222 56.119,62.335 55.958 C 62.692 55.451,62.428 55.640,61.660 56.441 C 61.251 56.866,61.029 57.160,61.167 57.093 C 61.304 57.026,61.229 57.126,61.000 57.315 C 60.771 57.504,60.658 57.663,60.750 57.668 C 60.842 57.673,60.784 57.754,60.621 57.849 C 60.459 57.943,60.370 58.091,60.423 58.177 C 60.476 58.263,60.436 58.333,60.333 58.333 C 60.231 58.333,60.193 58.408,60.250 58.500 C 60.307 58.592,60.269 58.667,60.167 58.667 C 60.064 58.667,60.027 58.742,60.083 58.833 C 60.140 58.925,60.109 59.000,60.015 59.000 C 59.921 59.000,59.892 59.125,59.950 59.277 C 60.021 59.463,59.993 59.515,59.864 59.435 C 59.737 59.357,59.705 59.406,59.770 59.575 C 59.824 59.717,59.793 59.833,59.700 59.833 C 59.607 59.833,59.570 59.983,59.618 60.167 C 59.669 60.360,59.623 60.500,59.510 60.500 C 59.402 60.500,59.360 60.575,59.417 60.667 C 59.473 60.758,59.460 60.927,59.387 61.042 C 59.090 61.510,58.903 65.432,59.163 65.745 C 59.265 65.869,59.299 66.161,59.239 66.403 C 59.175 66.655,59.213 66.938,59.328 67.077 C 59.442 67.214,59.478 67.474,59.413 67.680 C 59.328 67.947,59.352 68.008,59.508 67.912 C 59.668 67.813,59.693 67.909,59.612 68.316 C 59.537 68.692,59.561 68.815,59.693 68.733 C 59.825 68.652,59.848 68.751,59.771 69.058 C 59.702 69.333,59.729 69.500,59.841 69.500 C 59.947 69.500,59.978 69.640,59.917 69.833 C 59.858 70.017,59.884 70.167,59.973 70.167 C 60.062 70.167,60.093 70.328,60.041 70.526 C 59.973 70.788,60.005 70.850,60.158 70.755 C 60.314 70.659,60.339 70.718,60.257 70.979 C 60.187 71.198,60.216 71.333,60.333 71.333 C 60.447 71.333,60.480 71.467,60.417 71.667 C 60.358 71.850,60.384 72.000,60.473 72.000 C 60.562 72.000,60.596 72.150,60.548 72.333 C 60.500 72.517,60.538 72.667,60.632 72.667 C 60.725 72.667,60.760 72.828,60.708 73.026 C 60.648 73.256,60.678 73.346,60.792 73.276 C 60.905 73.206,60.935 73.295,60.875 73.526 C 60.805 73.794,60.837 73.851,60.999 73.750 C 61.148 73.658,61.178 73.680,61.093 73.818 C 60.938 74.068,61.316 75.030,61.519 74.905 C 61.600 74.855,61.667 74.893,61.667 74.990 C 61.667 75.241,61.934 75.209,62.218 74.925 C 62.351 74.791,62.498 74.720,62.543 74.766 C 62.589 74.811,62.863 74.527,63.153 74.133 C 63.443 73.739,63.733 73.417,63.798 73.417 C 63.863 73.417,63.898 73.360,63.875 73.292 C 63.852 73.223,63.890 73.184,63.958 73.204 C 64.027 73.225,64.643 72.681,65.326 71.996 C 66.010 71.311,66.348 71.018,66.076 71.345 C 65.805 71.672,66.028 71.485,66.572 70.928 C 67.115 70.372,67.453 70.065,67.322 70.247 C 67.183 70.438,67.381 70.345,67.792 70.024 C 68.181 69.721,68.500 69.412,68.500 69.338 C 68.500 69.265,68.697 69.076,68.937 68.919 C 69.235 68.723,69.337 68.704,69.256 68.858 C 69.191 68.982,69.301 68.896,69.500 68.667 C 69.699 68.438,69.812 68.362,69.750 68.500 C 69.688 68.637,69.801 68.563,70.000 68.333 C 70.199 68.104,70.313 68.029,70.252 68.167 C 70.192 68.304,70.260 68.271,70.404 68.093 C 70.549 67.915,70.669 67.840,70.672 67.926 C 70.675 68.013,70.754 67.951,70.849 67.788 C 70.943 67.626,71.093 67.538,71.181 67.592 C 71.269 67.646,71.695 67.491,72.129 67.247 C 72.562 67.002,73.104 66.767,73.333 66.725 C 73.563 66.682,73.774 66.581,73.802 66.500 C 73.831 66.418,73.975 66.398,74.121 66.454 C 74.313 66.528,74.350 66.494,74.251 66.335 C 74.149 66.169,74.204 66.138,74.474 66.208 C 74.672 66.260,74.833 66.226,74.833 66.133 C 74.833 66.040,74.946 66.008,75.083 66.060 C 75.221 66.113,75.333 66.079,75.333 65.984 C 75.333 65.887,75.480 65.857,75.667 65.917 C 75.866 65.980,76.000 65.947,76.000 65.833 C 76.000 65.720,76.134 65.687,76.333 65.750 C 76.527 65.811,76.667 65.780,76.667 65.675 C 76.667 65.562,76.834 65.536,77.108 65.604 C 77.427 65.684,77.516 65.660,77.428 65.518 C 77.339 65.374,77.431 65.351,77.761 65.434 C 78.091 65.517,78.183 65.494,78.094 65.351 C 78.006 65.209,78.093 65.184,78.403 65.261 C 78.654 65.324,78.833 65.299,78.833 65.200 C 78.833 65.107,78.995 65.073,79.193 65.125 C 79.390 65.177,79.510 65.151,79.459 65.068 C 79.408 64.985,79.565 64.908,79.808 64.898 C 80.051 64.888,80.550 64.745,80.917 64.581 C 81.283 64.416,81.640 64.293,81.708 64.308 C 81.777 64.322,81.833 64.254,81.833 64.157 C 81.833 64.060,81.908 64.027,82.000 64.083 C 82.092 64.140,82.167 64.102,82.167 64.000 C 82.167 63.898,82.242 63.860,82.333 63.917 C 82.425 63.973,82.500 63.936,82.500 63.833 C 82.500 63.731,82.575 63.693,82.667 63.750 C 82.758 63.807,82.833 63.761,82.833 63.649 C 82.833 63.536,82.877 63.488,82.931 63.542 C 82.984 63.595,83.174 63.492,83.353 63.313 C 83.532 63.134,83.743 63.028,83.822 63.076 C 83.901 63.125,84.012 63.042,84.070 62.892 C 84.127 62.742,84.220 62.664,84.275 62.719 C 84.330 62.774,84.521 62.654,84.700 62.451 C 84.879 62.249,84.971 62.196,84.905 62.333 C 84.839 62.471,85.095 62.287,85.476 61.925 C 86.193 61.241,86.314 61.073,85.958 61.253 C 85.844 61.311,85.900 61.236,86.083 61.086 C 86.267 60.937,86.395 60.706,86.368 60.574 C 86.341 60.442,86.395 60.333,86.487 60.333 C 86.580 60.333,86.613 60.221,86.560 60.083 C 86.508 59.946,86.547 59.833,86.649 59.833 C 86.750 59.833,86.833 59.608,86.833 59.333 C 86.833 59.058,86.750 58.833,86.647 58.833 C 86.543 58.833,86.500 58.686,86.548 58.500 C 86.596 58.317,86.555 58.167,86.457 58.167 C 86.358 58.167,86.320 58.125,86.371 58.073 C 86.423 58.022,86.287 57.787,86.069 57.552 C 85.851 57.317,85.707 57.070,85.748 57.003 C 85.789 56.936,85.620 56.702,85.371 56.483 L 84.919 56.083 85.251 56.498 C 85.481 56.784,85.373 56.732,84.902 56.331 C 84.528 56.011,84.258 55.682,84.303 55.599 C 84.348 55.516,84.301 55.500,84.198 55.564 C 84.096 55.627,83.859 55.526,83.673 55.339 C 83.486 55.153,83.332 55.056,83.331 55.125 C 83.329 55.194,83.273 55.166,83.206 55.064 C 83.003 54.756,81.669 54.146,81.469 54.269 C 81.349 54.343,81.329 54.309,81.412 54.175 C 81.508 54.018,81.446 53.995,81.167 54.083 C 80.931 54.158,80.830 54.140,80.895 54.035 C 81.030 53.817,80.578 53.647,80.223 53.784 C 80.025 53.859,79.983 53.828,80.077 53.677 C 80.175 53.518,80.114 53.494,79.833 53.583 C 79.571 53.667,79.494 53.645,79.576 53.511 C 79.660 53.376,79.562 53.353,79.239 53.434 C 78.897 53.520,78.816 53.497,78.913 53.340 C 79.007 53.187,78.947 53.161,78.688 53.243 C 78.475 53.311,78.333 53.284,78.333 53.175 C 78.333 53.065,78.170 53.035,77.917 53.098 C 77.671 53.160,77.500 53.131,77.500 53.029 C 77.500 52.922,77.272 52.891,76.917 52.949 C 76.596 53.001,76.333 52.978,76.333 52.897 C 76.333 52.816,75.171 52.750,73.750 52.749 C 72.329 52.748,71.167 52.815,71.167 52.897 M115.417 54.839 C 119.208 55.378,120.602 59.413,117.924 62.096 C 116.532 63.490,116.221 63.556,110.604 63.628 L 105.792 63.690 105.889 62.803 C 105.943 62.316,106.031 60.567,106.084 58.917 C 106.138 57.267,106.222 55.635,106.272 55.292 L 106.363 54.667 110.306 54.670 C 112.475 54.672,114.775 54.748,115.417 54.839 M41.423 61.844 C 41.498 61.965,41.333 61.984,40.909 61.904 C 40.465 61.821,40.319 61.841,40.401 61.974 C 40.482 62.106,40.357 62.130,39.982 62.055 C 39.567 61.972,39.478 61.996,39.583 62.166 C 39.674 62.313,39.653 62.345,39.522 62.263 C 39.281 62.115,37.167 62.797,37.167 63.023 C 37.167 63.113,37.092 63.140,37.000 63.083 C 36.908 63.027,36.833 63.064,36.833 63.167 C 36.833 63.269,36.758 63.307,36.667 63.250 C 36.575 63.193,36.500 63.231,36.500 63.333 C 36.500 63.436,36.425 63.473,36.333 63.417 C 36.242 63.360,36.167 63.398,36.167 63.500 C 36.167 63.602,36.092 63.640,36.000 63.583 C 35.908 63.527,35.833 63.557,35.833 63.651 C 35.833 63.745,35.674 63.907,35.480 64.011 C 35.195 64.163,35.149 64.156,35.242 63.975 C 35.306 63.851,35.251 63.880,35.121 64.039 C 34.990 64.198,34.837 64.281,34.779 64.224 C 34.722 64.166,34.627 64.242,34.570 64.392 C 34.512 64.542,34.407 64.629,34.337 64.585 C 34.266 64.542,34.012 64.689,33.771 64.912 C 33.530 65.135,33.333 65.265,33.333 65.200 C 33.332 65.136,33.139 65.308,32.904 65.583 C 32.668 65.858,32.532 65.971,32.601 65.833 C 32.671 65.696,32.366 65.958,31.924 66.417 C 31.483 66.875,31.226 67.094,31.353 66.904 C 31.479 66.714,31.121 67.051,30.555 67.653 C 29.599 68.672,29.547 68.767,29.805 69.019 C 29.958 69.169,30.140 69.258,30.208 69.219 C 30.277 69.179,30.333 69.226,30.333 69.323 C 30.333 69.421,30.390 69.488,30.458 69.473 C 30.527 69.459,30.918 69.604,31.326 69.795 C 31.734 69.987,32.128 70.107,32.201 70.062 C 32.274 70.017,32.333 70.072,32.333 70.185 C 32.333 70.297,32.380 70.342,32.437 70.286 C 32.493 70.229,32.649 70.292,32.783 70.426 C 32.917 70.560,33.096 70.627,33.180 70.575 C 33.264 70.523,33.333 70.564,33.333 70.667 C 33.333 70.769,33.408 70.807,33.500 70.750 C 33.592 70.693,33.667 70.731,33.667 70.833 C 33.667 70.936,33.739 70.975,33.827 70.920 C 33.916 70.866,34.128 70.955,34.299 71.119 C 34.471 71.283,34.717 71.440,34.847 71.467 C 34.977 71.495,35.177 71.641,35.292 71.791 C 35.406 71.941,35.502 71.993,35.505 71.907 C 35.508 71.821,35.621 71.896,35.755 72.074 C 35.890 72.251,36.001 72.326,36.003 72.240 C 36.004 72.152,36.058 72.156,36.128 72.251 C 36.351 72.557,37.559 73.398,37.427 73.155 C 37.355 73.024,37.474 73.108,37.690 73.341 C 37.906 73.575,38.018 73.650,37.939 73.508 C 37.860 73.366,38.077 73.550,38.422 73.917 C 38.767 74.283,38.947 74.433,38.823 74.250 C 38.698 74.067,39.180 74.534,39.893 75.289 C 40.606 76.043,41.503 76.935,41.887 77.271 C 42.270 77.607,42.471 77.827,42.333 77.760 C 42.196 77.693,42.346 77.876,42.667 78.167 C 42.987 78.457,43.137 78.643,43.000 78.579 C 42.862 78.515,42.975 78.665,43.250 78.910 C 43.525 79.156,43.637 79.308,43.500 79.248 C 43.362 79.187,43.438 79.293,43.667 79.482 C 43.896 79.671,44.013 79.828,43.926 79.830 C 43.840 79.832,43.915 79.943,44.093 80.078 C 44.271 80.213,44.342 80.326,44.250 80.331 C 44.158 80.335,44.196 80.410,44.333 80.496 C 44.471 80.583,44.593 80.732,44.604 80.827 C 44.616 80.922,44.634 81.061,44.646 81.135 C 44.657 81.210,44.820 81.435,45.006 81.635 C 45.193 81.836,45.292 82.000,45.225 82.000 C 45.158 82.000,45.249 82.110,45.426 82.245 C 45.604 82.379,45.705 82.492,45.651 82.495 C 45.596 82.498,45.841 82.805,46.196 83.177 C 46.550 83.550,46.804 83.912,46.760 83.983 C 46.716 84.054,46.996 84.406,47.382 84.765 L 48.083 85.417 47.500 84.742 C 47.141 84.327,47.246 84.400,47.773 84.934 C 48.623 85.795,49.688 86.608,49.441 86.207 C 49.339 86.041,49.400 86.038,49.734 86.190 C 49.966 86.296,50.109 86.459,50.051 86.553 C 49.987 86.656,50.054 86.681,50.223 86.617 C 50.375 86.558,50.500 86.588,50.500 86.683 C 50.500 86.780,50.646 86.809,50.833 86.750 C 51.025 86.689,51.167 86.720,51.167 86.822 C 51.167 86.920,51.471 87.000,51.843 87.000 C 52.313 87.000,52.483 86.941,52.400 86.807 C 52.319 86.675,52.394 86.644,52.641 86.708 C 52.838 86.760,53.000 86.730,53.000 86.641 C 53.000 86.553,53.085 86.533,53.190 86.597 C 53.295 86.662,53.524 86.537,53.704 86.316 C 53.883 86.096,53.970 86.029,53.898 86.167 C 53.826 86.304,54.007 86.192,54.300 85.917 C 54.593 85.643,54.833 85.324,54.833 85.209 C 54.833 85.094,54.901 85.000,54.984 85.000 C 55.189 85.000,55.522 84.004,55.389 83.788 C 55.322 83.680,55.364 83.666,55.501 83.750 C 55.663 83.851,55.695 83.794,55.625 83.526 C 55.573 83.328,55.608 83.167,55.702 83.167 C 55.795 83.167,55.836 82.979,55.793 82.750 C 55.749 82.521,55.762 82.333,55.822 82.333 C 55.882 82.333,55.934 81.437,55.938 80.340 C 55.942 79.244,55.892 78.380,55.827 78.421 C 55.762 78.461,55.747 78.147,55.795 77.722 C 55.855 77.190,55.826 76.985,55.701 77.062 C 55.577 77.139,55.551 76.981,55.619 76.561 C 55.695 76.092,55.669 75.979,55.508 76.078 C 55.355 76.173,55.327 76.117,55.405 75.871 C 55.524 75.496,55.056 73.201,54.793 72.875 C 54.701 72.760,54.682 72.667,54.750 72.667 C 54.818 72.667,54.781 72.554,54.667 72.417 C 54.553 72.279,54.515 72.167,54.583 72.167 C 54.652 72.167,54.624 72.066,54.522 71.943 C 54.420 71.820,54.386 71.670,54.446 71.610 C 54.506 71.549,54.460 71.500,54.343 71.500 C 54.223 71.500,54.173 71.392,54.227 71.250 C 54.280 71.112,54.242 71.000,54.144 71.000 C 54.045 71.000,54.009 70.884,54.064 70.741 C 54.128 70.572,54.096 70.524,53.970 70.602 C 53.841 70.682,53.812 70.629,53.883 70.444 C 53.942 70.291,53.912 70.167,53.818 70.167 C 53.724 70.167,53.693 70.092,53.750 70.000 C 53.807 69.908,53.769 69.833,53.667 69.833 C 53.564 69.833,53.527 69.758,53.583 69.667 C 53.640 69.575,53.602 69.500,53.500 69.500 C 53.398 69.500,53.360 69.425,53.417 69.333 C 53.473 69.242,53.436 69.167,53.333 69.167 C 53.231 69.167,53.193 69.092,53.250 69.000 C 53.307 68.908,53.269 68.833,53.167 68.833 C 53.064 68.833,53.027 68.758,53.083 68.667 C 53.140 68.575,53.102 68.500,53.000 68.500 C 52.898 68.500,52.858 68.428,52.913 68.339 C 52.967 68.251,52.866 68.032,52.687 67.853 C 52.508 67.674,52.394 67.495,52.435 67.454 C 52.475 67.414,52.300 67.164,52.045 66.899 C 51.211 66.032,50.745 65.444,51.000 65.581 C 51.137 65.656,50.992 65.443,50.676 65.108 C 50.360 64.774,50.010 64.500,49.898 64.500 C 49.786 64.500,49.533 64.294,49.335 64.042 C 49.137 63.790,49.024 63.696,49.084 63.833 C 49.143 63.971,49.046 63.918,48.867 63.715 C 48.688 63.513,48.496 63.393,48.441 63.448 C 48.386 63.503,48.294 63.425,48.236 63.275 C 48.179 63.125,48.065 63.043,47.983 63.094 C 47.900 63.145,47.833 63.102,47.833 63.000 C 47.833 62.898,47.758 62.860,47.667 62.917 C 47.575 62.973,47.500 62.948,47.500 62.859 C 47.500 62.647,46.510 62.308,46.288 62.444 C 46.180 62.511,46.166 62.469,46.250 62.333 C 46.351 62.170,46.294 62.138,46.026 62.208 C 45.798 62.268,45.706 62.238,45.775 62.127 C 45.844 62.014,45.725 61.982,45.441 62.036 C 45.199 62.082,45.000 62.046,45.000 61.956 C 45.000 61.862,44.783 61.835,44.492 61.893 C 44.176 61.956,44.022 61.933,44.085 61.831 C 44.148 61.728,43.650 61.667,42.750 61.667 C 41.777 61.667,41.349 61.724,41.423 61.844 M40.833 75.917 C 41.331 76.421,41.701 76.833,41.655 76.833 C 41.609 76.833,41.165 76.421,40.667 75.917 C 40.169 75.412,39.799 75.000,39.845 75.000 C 39.891 75.000,40.335 75.412,40.833 75.917 " stroke="none" fill="#333384" fill-rule="evenodd"></path><path id="path2" d="M66.000 19.222 C 65.496 19.618,64.974 20.087,64.841 20.263 C 64.707 20.439,64.857 20.349,65.174 20.063 C 65.491 19.776,66.080 19.307,66.483 19.021 C 66.887 18.734,67.149 18.500,67.067 18.500 C 66.984 18.500,66.504 18.825,66.000 19.222 M70.833 18.552 C 70.833 18.581,71.077 18.825,71.375 19.094 L 71.917 19.583 71.427 19.042 C 70.971 18.537,70.833 18.423,70.833 18.552 M30.208 19.282 C 30.369 19.323,30.631 19.323,30.792 19.282 C 30.952 19.240,30.821 19.205,30.500 19.205 C 30.179 19.205,30.048 19.240,30.208 19.282 M73.236 26.750 C 73.236 28.492,73.261 29.182,73.291 28.283 C 73.321 27.384,73.321 25.959,73.291 25.116 C 73.261 24.273,73.236 25.008,73.236 26.750 M27.500 28.500 C 27.696 28.775,27.894 29.000,27.939 29.000 C 27.985 29.000,27.862 28.775,27.667 28.500 C 27.471 28.225,27.273 28.000,27.227 28.000 C 27.181 28.000,27.304 28.225,27.500 28.500 M29.833 31.250 C 30.331 31.754,30.776 32.167,30.822 32.167 C 30.868 32.167,30.498 31.754,30.000 31.250 C 29.502 30.746,29.057 30.333,29.011 30.333 C 28.966 30.333,29.335 30.746,29.833 31.250 M33.039 33.871 C 33.534 34.292,34.500 34.895,34.500 34.783 C 34.500 34.745,34.069 34.437,33.542 34.099 C 33.015 33.760,32.788 33.658,33.039 33.871 M49.240 34.375 L 48.750 34.917 49.292 34.427 C 49.797 33.971,49.910 33.833,49.781 33.833 C 49.752 33.833,49.509 34.077,49.240 34.375 M175.881 36.083 C 175.882 36.542,175.915 36.709,175.953 36.456 C 175.991 36.203,175.990 35.828,175.951 35.623 C 175.911 35.418,175.880 35.625,175.881 36.083 M28.000 37.394 C 28.000 37.440,28.225 37.638,28.500 37.833 C 28.775 38.029,29.000 38.152,29.000 38.106 C 29.000 38.060,28.775 37.862,28.500 37.667 C 28.225 37.471,28.000 37.348,28.000 37.394 M30.750 39.438 C 30.842 39.526,31.592 40.230,32.417 41.003 L 33.917 42.409 32.750 41.192 C 32.108 40.523,31.358 39.819,31.083 39.627 C 30.808 39.436,30.658 39.351,30.750 39.438 M132.372 40.333 C 132.372 40.654,132.406 40.785,132.448 40.625 C 132.490 40.465,132.490 40.202,132.448 40.042 C 132.406 39.881,132.372 40.012,132.372 40.333 M59.833 40.064 C 59.833 40.243,60.329 41.167,60.425 41.167 C 60.471 41.167,60.385 40.923,60.233 40.625 C 59.924 40.017,59.833 39.890,59.833 40.064 M64.000 44.748 C 64.000 44.862,65.020 45.368,65.097 45.292 C 65.133 45.256,64.901 45.102,64.581 44.949 C 64.262 44.797,64.000 44.706,64.000 44.748 M73.208 46.789 C 73.644 46.824,74.356 46.824,74.792 46.789 C 75.227 46.755,74.871 46.727,74.000 46.727 C 73.129 46.727,72.773 46.755,73.208 46.789 M73.131 52.790 C 73.615 52.824,74.365 52.823,74.797 52.789 C 75.230 52.755,74.833 52.727,73.917 52.728 C 73.000 52.728,72.646 52.756,73.131 52.790 M70.375 52.948 C 70.535 52.990,70.798 52.990,70.958 52.948 C 71.119 52.906,70.987 52.872,70.667 52.872 C 70.346 52.872,70.215 52.906,70.375 52.948 M18.991 55.458 L 18.417 56.083 19.042 55.509 C 19.385 55.193,19.667 54.912,19.667 54.884 C 19.667 54.757,19.526 54.877,18.991 55.458 M83.832 55.451 C 84.060 55.615,84.548 56.009,84.915 56.326 L 85.583 56.903 85.047 56.324 C 84.751 56.005,84.264 55.611,83.963 55.448 C 83.436 55.163,83.431 55.163,83.832 55.451 M194.889 57.167 C 194.889 57.854,194.919 58.135,194.955 57.792 C 194.991 57.448,194.991 56.885,194.955 56.542 C 194.919 56.198,194.889 56.479,194.889 57.167 M208.055 58.750 C 208.055 59.392,208.086 59.634,208.122 59.288 C 208.158 58.942,208.157 58.417,208.120 58.121 C 208.083 57.825,208.054 58.108,208.055 58.750 M33.495 59.125 L 32.417 60.250 33.542 59.171 C 34.160 58.578,34.667 58.072,34.667 58.046 C 34.667 57.924,34.497 58.080,33.495 59.125 M16.242 59.015 C 16.095 59.299,16.005 59.561,16.041 59.597 C 16.077 59.633,16.232 59.401,16.384 59.081 C 16.727 58.362,16.608 58.308,16.242 59.015 M51.326 66.125 C 51.636 66.515,51.919 66.833,51.956 66.833 C 52.074 66.833,51.359 65.896,51.056 65.652 C 50.895 65.523,51.017 65.735,51.326 66.125 M20.208 66.119 C 20.460 66.158,20.873 66.158,21.125 66.119 C 21.377 66.081,21.171 66.050,20.667 66.050 C 20.162 66.050,19.956 66.081,20.208 66.119 M31.658 66.625 L 31.083 67.250 31.708 66.676 C 32.290 66.141,32.410 66.000,32.283 66.000 C 32.255 66.000,31.974 66.281,31.658 66.625 M29.750 68.333 C 29.392 68.700,29.183 69.000,29.286 69.000 C 29.389 69.000,29.610 69.043,29.778 69.096 C 30.071 69.188,30.070 69.184,29.776 68.995 C 29.487 68.811,29.502 68.764,30.017 68.233 C 30.318 67.921,30.528 67.667,30.483 67.667 C 30.438 67.667,30.108 67.967,29.750 68.333 M92.039 70.667 C 92.039 70.987,92.073 71.119,92.115 70.958 C 92.157 70.798,92.157 70.535,92.115 70.375 C 92.073 70.215,92.039 70.346,92.039 70.667 M65.824 71.458 L 65.250 72.083 65.875 71.509 C 66.219 71.193,66.500 70.912,66.500 70.884 C 66.500 70.757,66.359 70.877,65.824 71.458 M217.042 73.782 C 217.202 73.823,217.465 73.823,217.625 73.782 C 217.785 73.740,217.654 73.705,217.333 73.705 C 217.012 73.705,216.881 73.740,217.042 73.782 M40.667 75.917 C 41.165 76.421,41.609 76.833,41.655 76.833 C 41.701 76.833,41.331 76.421,40.833 75.917 C 40.335 75.412,39.891 75.000,39.845 75.000 C 39.799 75.000,40.169 75.412,40.667 75.917 M55.881 80.417 C 55.882 80.875,55.915 81.043,55.953 80.789 C 55.991 80.536,55.990 80.161,55.951 79.956 C 55.911 79.751,55.880 79.958,55.881 80.417 M46.289 83.417 C 46.664 83.875,47.257 84.512,47.607 84.833 C 47.957 85.154,47.801 84.929,47.260 84.333 C 45.858 82.790,45.500 82.452,46.289 83.417 " stroke="none" fill="#2c0b7c" fill-rule="evenodd"></path><path id="path3" d="M55.205 22.833 C 55.205 23.154,55.240 23.285,55.282 23.125 C 55.323 22.965,55.323 22.702,55.282 22.542 C 55.240 22.381,55.205 22.512,55.205 22.833 M75.375 27.750 C 75.377 28.117,75.411 28.247,75.451 28.040 C 75.491 27.832,75.490 27.532,75.448 27.373 C 75.406 27.214,75.374 27.383,75.375 27.750 M73.387 29.500 C 73.387 30.096,73.417 30.340,73.454 30.042 C 73.491 29.744,73.491 29.256,73.454 28.958 C 73.417 28.660,73.387 28.904,73.387 29.500 M49.658 34.125 L 49.083 34.750 49.708 34.176 C 50.052 33.860,50.333 33.578,50.333 33.551 C 50.333 33.423,50.192 33.543,49.658 34.125 M72.958 46.957 C 73.531 46.989,74.469 46.989,75.042 46.957 C 75.615 46.924,75.146 46.898,74.000 46.898 C 72.854 46.898,72.385 46.924,72.958 46.957 M72.875 50.615 C 73.035 50.657,73.298 50.657,73.458 50.615 C 73.619 50.573,73.487 50.539,73.167 50.539 C 72.846 50.539,72.715 50.573,72.875 50.615 M74.208 50.615 C 74.369 50.657,74.631 50.657,74.792 50.615 C 74.952 50.573,74.821 50.539,74.500 50.539 C 74.179 50.539,74.048 50.573,74.208 50.615 M73.460 52.618 C 73.668 52.658,73.968 52.656,74.127 52.615 C 74.286 52.573,74.117 52.540,73.750 52.542 C 73.383 52.544,73.253 52.578,73.460 52.618 M34.073 58.708 L 33.583 59.250 34.125 58.760 C 34.630 58.304,34.743 58.167,34.615 58.167 C 34.586 58.167,34.342 58.410,34.073 58.708 M15.545 61.333 C 15.545 61.746,15.578 61.915,15.618 61.708 C 15.657 61.502,15.657 61.165,15.618 60.958 C 15.578 60.752,15.545 60.921,15.545 61.333 M29.742 68.208 L 29.083 68.917 29.792 68.258 C 30.450 67.645,30.577 67.500,30.450 67.500 C 30.423 67.500,30.105 67.819,29.742 68.208 M64.824 72.625 L 64.250 73.250 64.875 72.676 C 65.219 72.360,65.500 72.078,65.500 72.051 C 65.500 71.923,65.359 72.043,64.824 72.625 M56.050 80.500 C 56.050 81.004,56.081 81.210,56.119 80.958 C 56.158 80.706,56.158 80.294,56.119 80.042 C 56.081 79.790,56.050 79.996,56.050 80.500 " stroke="none" fill="#525c88" fill-rule="evenodd"></path><path id="path4" d="M64.575 20.208 L 63.917 20.917 64.625 20.258 C 65.015 19.895,65.333 19.577,65.333 19.550 C 65.333 19.423,65.188 19.550,64.575 20.208 M25.209 23.083 C 25.211 23.450,25.245 23.580,25.285 23.373 C 25.324 23.166,25.323 22.866,25.281 22.706 C 25.239 22.547,25.207 22.717,25.209 23.083 M44.958 22.623 C 45.531 22.656,46.469 22.656,47.042 22.623 C 47.615 22.591,47.146 22.564,46.000 22.564 C 44.854 22.564,44.385 22.591,44.958 22.623 M73.402 25.667 C 73.402 27.271,73.427 27.927,73.457 27.125 C 73.488 26.323,73.488 25.010,73.457 24.208 C 73.427 23.406,73.402 24.063,73.402 25.667 M73.548 31.917 C 73.549 32.375,73.581 32.543,73.620 32.289 C 73.658 32.036,73.657 31.661,73.617 31.456 C 73.578 31.251,73.546 31.458,73.548 31.917 M58.728 34.917 C 58.728 35.833,58.756 36.187,58.790 35.703 C 58.824 35.218,58.823 34.468,58.789 34.036 C 58.755 33.604,58.727 34.000,58.728 34.917 M41.795 37.287 C 42.094 37.325,42.544 37.324,42.795 37.286 C 43.045 37.248,42.800 37.217,42.250 37.218 C 41.700 37.219,41.495 37.250,41.795 37.287 M232.712 40.000 C 232.712 40.412,232.745 40.581,232.784 40.375 C 232.824 40.169,232.824 39.831,232.784 39.625 C 232.745 39.419,232.712 39.587,232.712 40.000 M32.993 41.208 C 33.402 41.644,33.758 42.000,33.785 42.000 C 33.910 42.000,33.778 41.850,33.042 41.160 L 32.250 40.417 32.993 41.208 M61.667 43.250 C 61.978 43.571,62.270 43.833,62.315 43.833 C 62.361 43.833,62.144 43.571,61.833 43.250 C 61.522 42.929,61.230 42.667,61.185 42.667 C 61.139 42.667,61.356 42.929,61.667 43.250 M71.127 46.951 C 71.334 46.991,71.634 46.990,71.794 46.948 C 71.953 46.906,71.783 46.874,71.417 46.875 C 71.050 46.877,70.920 46.911,71.127 46.951 M71.875 52.619 C 72.127 52.658,72.540 52.658,72.792 52.619 C 73.044 52.581,72.837 52.550,72.333 52.550 C 71.829 52.550,71.623 52.581,71.875 52.619 M74.795 52.621 C 75.094 52.658,75.544 52.657,75.795 52.619 C 76.045 52.581,75.800 52.551,75.250 52.552 C 74.700 52.553,74.495 52.584,74.795 52.621 M61.409 56.542 L 60.750 57.250 61.458 56.591 C 62.117 55.978,62.243 55.833,62.117 55.833 C 62.090 55.833,61.771 56.152,61.409 56.542 M85.409 62.042 L 84.750 62.750 85.458 62.091 C 86.117 61.478,86.243 61.333,86.117 61.333 C 86.090 61.333,85.771 61.652,85.409 62.042 M42.042 61.621 C 42.385 61.657,42.948 61.657,43.292 61.621 C 43.635 61.585,43.354 61.556,42.667 61.556 C 41.979 61.556,41.698 61.585,42.042 61.621 M46.847 62.395 C 47.019 62.549,48.000 63.000,48.000 62.925 C 48.000 62.829,47.076 62.333,46.897 62.333 C 46.832 62.333,46.809 62.361,46.847 62.395 M58.892 63.917 C 58.892 64.742,58.920 65.100,58.955 64.713 C 58.990 64.327,58.990 63.652,58.956 63.213 C 58.922 62.775,58.893 63.092,58.892 63.917 M50.000 64.385 C 50.000 64.414,50.244 64.658,50.542 64.927 L 51.083 65.417 50.594 64.875 C 50.138 64.370,50.000 64.257,50.000 64.385 M16.500 64.552 C 16.500 64.581,16.744 64.825,17.042 65.094 L 17.583 65.583 17.094 65.042 C 16.638 64.537,16.500 64.423,16.500 64.552 M30.906 67.042 L 30.417 67.583 30.958 67.094 C 31.256 66.825,31.500 66.581,31.500 66.552 C 31.500 66.423,31.362 66.537,30.906 67.042 M66.240 71.375 L 65.750 71.917 66.292 71.427 C 66.797 70.971,66.910 70.833,66.781 70.833 C 66.752 70.833,66.509 71.077,66.240 71.375 M63.410 74.042 L 62.583 74.917 63.458 74.090 C 63.940 73.635,64.333 73.241,64.333 73.215 C 64.333 73.090,64.179 73.229,63.410 74.042 M39.333 74.885 C 39.333 74.914,39.577 75.158,39.875 75.427 L 40.417 75.917 39.927 75.375 C 39.471 74.870,39.333 74.757,39.333 74.885 M56.042 79.083 C 56.044 79.450,56.078 79.580,56.118 79.373 C 56.158 79.166,56.156 78.866,56.115 78.706 C 56.073 78.547,56.040 78.717,56.042 79.083 M47.167 84.750 C 47.478 85.071,47.770 85.333,47.815 85.333 C 47.861 85.333,47.644 85.071,47.333 84.750 C 47.022 84.429,46.730 84.167,46.685 84.167 C 46.639 84.167,46.856 84.429,47.167 84.750 M54.324 85.958 L 53.750 86.583 54.375 86.009 C 54.957 85.474,55.077 85.333,54.949 85.333 C 54.922 85.333,54.640 85.615,54.324 85.958 M46.167 86.417 C 46.478 86.737,46.770 87.000,46.815 87.000 C 46.861 87.000,46.644 86.737,46.333 86.417 C 46.022 86.096,45.730 85.833,45.685 85.833 C 45.639 85.833,45.856 86.096,46.167 86.417 " stroke="none" fill="#646c8c" fill-rule="evenodd"></path></g></svg>